<svg width="864" height="469" viewBox="0 0 864 469" fill="none" xmlns="http://www.w3.org/2000/svg">
<rect width="864" height="469" rx="4" fill="#F6F7FA"/>
<path d="M353.945 50V33.536H359.393L361.745 41.96C361.841 42.264 361.937 42.624 362.033 43.04C362.129 43.456 362.225 43.872 362.321 44.288C362.433 44.688 362.521 45.048 362.585 45.368H362.777C362.809 45.096 362.865 44.776 362.945 44.408C363.025 44.024 363.113 43.616 363.209 43.184C363.305 42.752 363.409 42.336 363.521 41.936L365.873 33.536H371.225V50H367.697V42.2C367.697 41.48 367.697 40.76 367.697 40.04C367.713 39.304 367.729 38.664 367.745 38.12C367.777 37.576 367.793 37.224 367.793 37.064H367.601C367.569 37.24 367.489 37.568 367.361 38.048C367.249 38.512 367.121 39.008 366.977 39.536C366.849 40.064 366.729 40.52 366.617 40.904L364.049 50H360.929L358.337 40.928C358.241 40.592 358.129 40.2 358.001 39.752C357.889 39.288 357.777 38.816 357.665 38.336C357.569 37.84 357.473 37.416 357.377 37.064H357.185C357.201 37.496 357.217 38.016 357.233 38.624C357.249 39.216 357.265 39.832 357.281 40.472C357.297 41.096 357.305 41.672 357.305 42.2V50H353.945ZM380.323 50.288C378.931 50.288 377.763 50.056 376.819 49.592C375.875 49.112 375.163 48.384 374.683 47.408C374.203 46.432 373.963 45.192 373.963 43.688C373.963 42.168 374.203 40.928 374.683 39.968C375.163 38.992 375.867 38.272 376.795 37.808C377.739 37.328 378.891 37.088 380.251 37.088C381.531 37.088 382.611 37.32 383.491 37.784C384.371 38.232 385.035 38.936 385.483 39.896C385.931 40.84 386.155 42.064 386.155 43.568V44.432H377.347C377.379 45.168 377.491 45.792 377.683 46.304C377.891 46.816 378.203 47.2 378.619 47.456C379.051 47.696 379.619 47.816 380.323 47.816C380.707 47.816 381.051 47.768 381.355 47.672C381.675 47.576 381.947 47.432 382.171 47.24C382.395 47.048 382.571 46.808 382.699 46.52C382.827 46.232 382.891 45.904 382.891 45.536H386.155C386.155 46.336 386.011 47.032 385.723 47.624C385.435 48.216 385.035 48.712 384.523 49.112C384.011 49.496 383.395 49.792 382.675 50C381.971 50.192 381.187 50.288 380.323 50.288ZM377.395 42.32H382.723C382.723 41.84 382.659 41.424 382.531 41.072C382.419 40.72 382.259 40.432 382.051 40.208C381.843 39.984 381.587 39.824 381.283 39.728C380.995 39.616 380.667 39.56 380.299 39.56C379.691 39.56 379.179 39.664 378.763 39.872C378.363 40.064 378.051 40.368 377.827 40.784C377.619 41.184 377.475 41.696 377.395 42.32ZM393.714 50.288C392.834 50.288 392.042 50.192 391.338 50C390.634 49.808 390.034 49.544 389.538 49.208C389.042 48.856 388.658 48.44 388.386 47.96C388.13 47.48 388.002 46.936 388.002 46.328C388.002 46.264 388.002 46.2 388.002 46.136C388.002 46.072 388.01 46.024 388.026 45.992H391.242C391.242 46.024 391.242 46.056 391.242 46.088C391.242 46.12 391.242 46.152 391.242 46.184C391.258 46.584 391.386 46.912 391.626 47.168C391.866 47.408 392.178 47.584 392.562 47.696C392.962 47.808 393.378 47.864 393.81 47.864C394.194 47.864 394.562 47.832 394.914 47.768C395.282 47.688 395.586 47.552 395.826 47.36C396.082 47.168 396.21 46.92 396.21 46.616C396.21 46.232 396.05 45.936 395.73 45.728C395.426 45.52 395.018 45.352 394.506 45.224C394.01 45.096 393.466 44.952 392.874 44.792C392.33 44.664 391.786 44.52 391.242 44.36C390.698 44.184 390.202 43.96 389.754 43.688C389.322 43.416 388.97 43.064 388.698 42.632C388.426 42.184 388.29 41.624 388.29 40.952C388.29 40.296 388.434 39.728 388.722 39.248C389.01 38.752 389.402 38.344 389.898 38.024C390.41 37.704 391.002 37.472 391.674 37.328C392.362 37.168 393.098 37.088 393.882 37.088C394.618 37.088 395.306 37.168 395.946 37.328C396.586 37.472 397.146 37.696 397.626 38C398.106 38.288 398.482 38.656 398.754 39.104C399.026 39.536 399.162 40.024 399.162 40.568C399.162 40.68 399.162 40.784 399.162 40.88C399.162 40.976 399.154 41.04 399.138 41.072H395.946V40.88C395.946 40.592 395.858 40.352 395.682 40.16C395.506 39.952 395.25 39.792 394.914 39.68C394.594 39.568 394.202 39.512 393.738 39.512C393.418 39.512 393.122 39.536 392.85 39.584C392.594 39.632 392.37 39.704 392.178 39.8C391.986 39.896 391.834 40.016 391.722 40.16C391.626 40.288 391.578 40.448 391.578 40.64C391.578 40.912 391.69 41.136 391.914 41.312C392.154 41.472 392.466 41.608 392.85 41.72C393.234 41.832 393.658 41.952 394.122 42.08C394.698 42.24 395.298 42.4 395.922 42.56C396.562 42.704 397.154 42.904 397.698 43.16C398.242 43.416 398.682 43.784 399.018 44.264C399.354 44.728 399.522 45.36 399.522 46.16C399.522 46.928 399.37 47.576 399.066 48.104C398.778 48.632 398.37 49.056 397.842 49.376C397.314 49.696 396.698 49.928 395.994 50.072C395.29 50.216 394.53 50.288 393.714 50.288ZM401.938 50V32.648H405.274V38.768H405.442C405.714 38.432 406.034 38.144 406.402 37.904C406.786 37.648 407.21 37.448 407.674 37.304C408.154 37.16 408.674 37.088 409.234 37.088C410.066 37.088 410.794 37.24 411.418 37.544C412.042 37.848 412.522 38.328 412.858 38.984C413.21 39.64 413.386 40.496 413.386 41.552V50H410.05V42.08C410.05 41.68 410.002 41.344 409.906 41.072C409.81 40.784 409.666 40.552 409.474 40.376C409.298 40.184 409.074 40.048 408.802 39.968C408.53 39.888 408.226 39.848 407.89 39.848C407.394 39.848 406.946 39.968 406.546 40.208C406.146 40.448 405.834 40.776 405.61 41.192C405.386 41.608 405.274 42.088 405.274 42.632V50H401.938ZM421.087 50V37.376H423.847L424.111 39.104H424.279C424.567 38.688 424.911 38.328 425.311 38.024C425.727 37.72 426.191 37.488 426.703 37.328C427.215 37.168 427.775 37.088 428.383 37.088C429.215 37.088 429.943 37.24 430.567 37.544C431.191 37.848 431.671 38.328 432.007 38.984C432.359 39.64 432.535 40.496 432.535 41.552V50H429.199V42.08C429.199 41.68 429.151 41.344 429.055 41.072C428.959 40.784 428.815 40.552 428.623 40.376C428.447 40.184 428.223 40.048 427.951 39.968C427.679 39.888 427.375 39.848 427.039 39.848C426.543 39.848 426.095 39.968 425.695 40.208C425.295 40.448 424.983 40.776 424.759 41.192C424.535 41.608 424.423 42.088 424.423 42.632V50H421.087ZM441.26 50.288C439.868 50.288 438.7 50.056 437.756 49.592C436.812 49.112 436.1 48.384 435.62 47.408C435.14 46.432 434.9 45.192 434.9 43.688C434.9 42.168 435.14 40.928 435.62 39.968C436.1 38.992 436.804 38.272 437.732 37.808C438.676 37.328 439.828 37.088 441.188 37.088C442.468 37.088 443.548 37.32 444.428 37.784C445.308 38.232 445.972 38.936 446.42 39.896C446.868 40.84 447.092 42.064 447.092 43.568V44.432H438.284C438.316 45.168 438.428 45.792 438.62 46.304C438.828 46.816 439.14 47.2 439.556 47.456C439.988 47.696 440.556 47.816 441.26 47.816C441.644 47.816 441.988 47.768 442.292 47.672C442.612 47.576 442.884 47.432 443.108 47.24C443.332 47.048 443.508 46.808 443.636 46.52C443.764 46.232 443.828 45.904 443.828 45.536H447.092C447.092 46.336 446.948 47.032 446.66 47.624C446.372 48.216 445.972 48.712 445.46 49.112C444.948 49.496 444.332 49.792 443.612 50C442.908 50.192 442.124 50.288 441.26 50.288ZM438.332 42.32H443.66C443.66 41.84 443.596 41.424 443.468 41.072C443.356 40.72 443.196 40.432 442.988 40.208C442.78 39.984 442.524 39.824 442.22 39.728C441.932 39.616 441.604 39.56 441.236 39.56C440.628 39.56 440.116 39.664 439.7 39.872C439.3 40.064 438.988 40.368 438.764 40.784C438.556 41.184 438.412 41.696 438.332 42.32ZM453.308 50.288C452.508 50.288 451.86 50.144 451.364 49.856C450.868 49.568 450.508 49.184 450.284 48.704C450.06 48.208 449.948 47.664 449.948 47.072V39.944H448.388V37.376H450.068L450.692 33.776H453.284V37.376H455.588V39.944H453.284V46.52C453.284 46.904 453.372 47.2 453.548 47.408C453.724 47.6 454.012 47.696 454.412 47.696H455.588V49.904C455.396 49.968 455.172 50.024 454.916 50.072C454.66 50.136 454.388 50.184 454.1 50.216C453.812 50.264 453.548 50.288 453.308 50.288ZM460.215 50L456.255 37.376H459.759L461.343 43.568C461.423 43.888 461.495 44.232 461.559 44.6C461.639 44.968 461.711 45.296 461.775 45.584C461.839 45.872 461.887 46.08 461.919 46.208H462.087C462.151 45.888 462.215 45.56 462.279 45.224C462.359 44.872 462.431 44.544 462.495 44.24C462.575 43.92 462.631 43.68 462.663 43.52L464.175 37.376H467.655L469.215 43.544C469.279 43.768 469.343 44.048 469.407 44.384C469.471 44.704 469.543 45.032 469.623 45.368C469.703 45.688 469.767 45.968 469.815 46.208H469.959C469.991 45.984 470.039 45.72 470.103 45.416C470.183 45.112 470.255 44.8 470.319 44.48C470.399 44.16 470.471 43.872 470.535 43.616L472.095 37.376H475.311L471.375 50H467.943L466.551 44.36C466.487 44.056 466.407 43.72 466.311 43.352C466.215 42.968 466.127 42.592 466.047 42.224C465.983 41.856 465.927 41.536 465.879 41.264H465.735C465.735 41.408 465.703 41.632 465.639 41.936C465.575 42.224 465.495 42.576 465.399 42.992C465.319 43.392 465.215 43.848 465.087 44.36L463.647 50H460.215ZM482.699 50.288C481.323 50.288 480.155 50.056 479.195 49.592C478.235 49.112 477.507 48.384 477.011 47.408C476.515 46.416 476.267 45.176 476.267 43.688C476.267 42.168 476.515 40.928 477.011 39.968C477.507 38.992 478.235 38.272 479.195 37.808C480.155 37.328 481.323 37.088 482.699 37.088C484.107 37.088 485.283 37.328 486.227 37.808C487.187 38.272 487.915 38.992 488.411 39.968C488.907 40.928 489.155 42.168 489.155 43.688C489.155 45.176 488.907 46.416 488.411 47.408C487.915 48.384 487.187 49.112 486.227 49.592C485.283 50.056 484.107 50.288 482.699 50.288ZM482.699 47.696C483.435 47.696 484.019 47.56 484.451 47.288C484.899 47.016 485.227 46.6 485.435 46.04C485.643 45.48 485.747 44.792 485.747 43.976V43.4C485.747 42.584 485.643 41.896 485.435 41.336C485.227 40.776 484.899 40.36 484.451 40.088C484.019 39.8 483.435 39.656 482.699 39.656C481.979 39.656 481.395 39.8 480.947 40.088C480.515 40.36 480.195 40.776 479.987 41.336C479.779 41.896 479.675 42.584 479.675 43.4V43.976C479.675 44.792 479.779 45.48 479.987 46.04C480.195 46.6 480.515 47.016 480.947 47.288C481.395 47.56 481.979 47.696 482.699 47.696ZM491.61 50V37.376H494.37L494.634 39.344H494.802C494.962 38.928 495.17 38.552 495.426 38.216C495.682 37.864 496.002 37.584 496.386 37.376C496.77 37.168 497.218 37.064 497.73 37.064C498.002 37.064 498.25 37.096 498.474 37.16C498.698 37.208 498.866 37.256 498.978 37.304V40.328H497.946C497.45 40.328 497.01 40.4 496.626 40.544C496.258 40.672 495.946 40.88 495.69 41.168C495.434 41.456 495.242 41.808 495.114 42.224C495.002 42.64 494.946 43.128 494.946 43.688V50H491.61ZM500.727 50V32.624H504.063V42.632L508.479 37.376H512.391L508.071 42.32L512.607 50H508.791L505.887 44.672L504.063 46.448V50H500.727Z" fill="#1B2431"/>
<line x1="110.207" y1="87.0216" x2="271.207" y2="121.022" stroke="#ABCBFB" stroke-width="2"/>
<line x1="401.534" y1="191.885" x2="270.534" y2="122.885" stroke="#ABCBFB" stroke-width="2"/>
<line x1="401.984" y1="192" x2="272.984" y2="190" stroke="#ABCBFB" stroke-width="2"/>
<line x1="272" y1="189.03" x2="270" y2="122.03" stroke="#ABCBFB" stroke-width="2"/>
<line x1="273.447" y1="189.894" x2="147.447" y2="252.894" stroke="#ABCBFB" stroke-width="2"/>
<line x1="180.063" y1="343.35" x2="146.063" y2="252.35" stroke="#ABCBFB" stroke-width="2"/>
<line x1="110.975" y1="87.7799" x2="147.975" y2="251.78" stroke="#ABCBFB" stroke-width="2"/>
<line x1="110.527" y1="87.15" x2="273.527" y2="188.15" stroke="#ABCBFB" stroke-width="2"/>
<line x1="283.01" y1="268.138" x2="272.01" y2="189.138" stroke="#ABCBFB" stroke-width="2"/>
<line x1="284.589" y1="268.808" x2="181.589" y2="343.808" stroke="#ABCBFB" stroke-width="2"/>
<line x1="284.984" y1="267.823" x2="306.984" y2="389.823" stroke="#ABCBFB" stroke-width="2"/>
<line x1="284.703" y1="267.289" x2="367.703" y2="349.289" stroke="#ABCBFB" stroke-width="2"/>
<line x1="283.884" y1="268.993" x2="146.884" y2="252.993" stroke="#ABCBFB" stroke-width="2"/>
<line x1="305.648" y1="390.936" x2="180.648" y2="343.936" stroke="#ABCBFB" stroke-width="2"/>
<line x1="305.452" y1="389.164" x2="366.452" y2="349.164" stroke="#ABCBFB" stroke-width="2"/>
<line x1="384.983" y1="258.182" x2="367.983" y2="350.182" stroke="#ABCBFB" stroke-width="2"/>
<line x1="384.1" y1="258.995" x2="284.1" y2="268.995" stroke="#ABCBFB" stroke-width="2"/>
<line x1="383.034" y1="257.741" x2="401.034" y2="190.741" stroke="#ABCBFB" stroke-width="2"/>
<line x1="547.069" y1="181.998" x2="402.069" y2="191.998" stroke="#ABCBFB" stroke-width="2"/>
<line x1="547.973" y1="180.768" x2="562.973" y2="243.768" stroke="#ABCBFB" stroke-width="2"/>
<line x1="547.814" y1="181.581" x2="477.814" y2="279.581" stroke="#ABCBFB" stroke-width="2"/>
<line x1="402.761" y1="190.351" x2="477.761" y2="278.351" stroke="#ABCBFB" stroke-width="2"/>
<line x1="384.22" y1="257.025" x2="477.22" y2="278.025" stroke="#ABCBFB" stroke-width="2"/>
<line x1="562.381" y1="244.925" x2="477.381" y2="279.925" stroke="#ABCBFB" stroke-width="2"/>
<line x1="597.367" y1="378.774" x2="476.367" y2="279.774" stroke="#ABCBFB" stroke-width="2"/>
<line x1="598.587" y1="377.19" x2="667.587" y2="427.19" stroke="#ABCBFB" stroke-width="2"/>
<line x1="755.146" y1="415.989" x2="667.146" y2="428.989" stroke="#ABCBFB" stroke-width="2"/>
<line x1="754.125" y1="415.483" x2="701.125" y2="319.483" stroke="#ABCBFB" stroke-width="2"/>
<line x1="562.472" y1="243.119" x2="702.472" y2="318.119" stroke="#ABCBFB" stroke-width="2"/>
<line x1="666.048" y1="427.694" x2="701.048" y2="318.694" stroke="#ABCBFB" stroke-width="2"/>
<line x1="597.507" y1="377.13" x2="701.507" y2="318.13" stroke="#ABCBFB" stroke-width="2"/>
<line x1="597.034" y1="378.259" x2="561.034" y2="244.259" stroke="#ABCBFB" stroke-width="2"/>
<circle cx="110" cy="88" r="16" fill="#3D84EE"/>
<circle cx="271" cy="122" r="16" fill="#3D84EE"/>
<circle cx="273" cy="189" r="16" fill="#3D84EE"/>
<circle cx="284" cy="268" r="16" fill="#3D84EE"/>
<circle cx="147" cy="252" r="16" fill="#3D84EE"/>
<circle cx="181" cy="343" r="16" fill="#3D84EE"/>
<circle cx="384" cy="258" r="16" fill="#3D84EE"/>
<circle cx="402" cy="191" r="16" fill="#3D84EE"/>
<circle cx="547" cy="181" r="16" fill="#3D84EE"/>
<circle cx="562" cy="244" r="16" fill="#3D84EE"/>
<circle cx="477" cy="279" r="16" fill="#3D84EE"/>
<circle cx="598" cy="378" r="16" fill="#3D84EE"/>
<circle cx="702" cy="319" r="16" fill="#3D84EE"/>
<circle cx="667" cy="428" r="16" fill="#3D84EE"/>
<circle cx="755" cy="415" r="16" fill="#3D84EE"/>
<circle cx="367" cy="350" r="16" fill="#3D84EE"/>
<circle cx="306" cy="390" r="16" fill="#3D84EE"/>
</svg>
